PathFileType	4	(X/Y/Z)	C:\Users\86182\Documents\cortex\Trimmed_M1_L7.trc
DataRate	CameraRate	NumFrames	NumMarkers	Units	OrigDataRate	OrigDataStartFrame	OrigNumFrames
100.00	100.00	       126	2	mm	100.00	721	       901
Frame#	Time	gripper			box			
		X1	Y1	Z1	X2	Y2	Z2	

721	7.200	198.54462	195.00266	293.08514	200.22867	194.01321	155.80684	
722	7.210	198.55402	194.99724	293.09070	200.22867	194.01321	155.80684	
723	7.220	198.58786	194.99644	293.08142	200.22867	194.01321	155.80684	
724	7.230	198.58800	194.99754	293.07953	200.22867	194.01321	155.80684	
725	7.240	198.54137	195.00850	293.07755	200.22867	194.01321	155.80684	
726	7.250	198.57478	194.99960	293.08044	200.22867	194.01321	155.80684	
727	7.260	198.54298	194.99385	293.09906	200.22867	194.01321	155.80684	
728	7.270	198.55225	195.00716	293.07593	200.22665	194.01207	155.80525	
729	7.280	198.58794	194.99519	293.08301	200.22867	194.01321	155.80684	
730	7.290	198.57860	194.99591	293.08066	200.21724	194.01198	155.81308	
731	7.300	198.55931	195.00478	293.07733	200.20955	194.01115	155.81729	
732	7.310	198.55931	195.00478	293.07733	200.21724	194.01198	155.81308	
733	7.320	198.55957	195.00829	293.07217	200.19804	194.00990	155.82358	
734	7.330	198.56645	195.00240	293.07874	200.19804	194.00990	155.82358	
735	7.340	198.53810	195.01190	293.07312	200.22867	194.01321	155.80684	
736	7.350	198.58794	194.99519	293.08301	200.22867	194.01321	155.80684	
737	7.360	198.58463	195.00345	293.07187	200.22867	194.01321	155.80684	
738	7.370	198.54869	195.00835	293.07523	200.22867	194.01321	155.80684	
739	7.380	198.58475	195.00697	293.06674	200.22867	194.01321	155.80684	
740	7.390	198.56335	195.01059	293.06769	200.22867	194.01321	155.80684	
741	7.400	198.61691	194.98665	293.08701	200.22867	194.01321	155.80684	
742	7.410	198.60983	194.99298	293.07712	200.22867	194.01321	155.80684	
743	7.420	198.57004	195.00119	293.07947	200.22867	194.01321	155.80684	
744	7.430	198.60123	194.99272	293.08148	200.22867	194.01321	155.80684	
745	7.440	198.55579	195.00598	293.07663	200.22867	194.01321	155.80684	
746	7.450	198.63847	194.99013	293.07568	200.22867	194.01321	155.80684	
747	7.460	198.59155	194.99397	293.08374	200.22867	194.01321	155.80684	
748	7.470	198.56645	195.00240	293.07874	200.22867	194.01321	155.80684	
749	7.480	198.59520	194.99632	293.07922	200.22867	194.01321	155.80684	
750	7.490	198.58794	194.99519	293.08301	200.22867	194.01321	155.80684	
751	7.500	198.57729	195.00114	293.07742	200.22867	194.01321	155.80684	
752	7.510	198.58514	195.00284	293.06729	200.22867	194.01321	155.80684	
753	7.520	198.56798	194.99907	293.07782	200.22867	194.01321	155.80684	
754	7.530	198.54517	195.00954	293.07452	200.22867	194.01321	155.80684	
755	7.540	198.55908	195.00133	293.08267	200.22867	194.01321	155.80684	
756	7.550	198.57716	194.99879	293.08087	200.22867	194.01321	155.80684	
757	7.560	198.55586	195.00714	293.07492	200.22867	194.01321	155.80684	
758	7.570	198.59891	194.99068	293.08362	200.22867	194.01321	155.80684	
759	7.580	198.59566	194.99576	293.07452	200.22867	194.01321	155.80684	
760	7.590	198.58075	194.99759	293.08157	200.22867	194.01321	155.80684	
761	7.600	198.58510	194.99890	293.07166	200.22867	194.01321	155.80684	
762	7.610	198.61771	194.99347	293.06479	200.22867	194.01321	155.80684	
763	7.620	198.64542	194.99722	293.06329	200.22867	194.01321	155.80684	
764	7.630	198.58452	194.99831	293.07809	200.22867	194.01321	155.80684	
765	7.640	198.61684	194.99620	293.07312	200.22867	194.01321	155.80684	
766	7.650	198.59967	194.99954	293.06519	200.22867	194.01321	155.80684	
767	7.660	198.61304	194.99748	293.07257	200.22867	194.01321	155.80684	
768	7.670	198.57574	195.00175	293.07755	200.22066	194.00864	155.80051	
769	7.680	198.57390	195.00586	293.07153	200.22867	194.01321	155.80684	
770	7.690	198.57776	195.01167	293.06192	200.22867	194.01321	155.80684	
771	7.700	198.55466	195.00758	293.07477	200.22266	194.00978	155.80208	
772	7.710	198.54819	195.00145	293.08585	200.22867	194.01321	155.80684	
773	7.720	198.58820	195.00342	293.07089	200.22867	194.01321	155.80684	
774	7.730	198.59247	194.99260	293.08603	200.22466	194.01093	155.80367	
775	7.740	198.55940	195.00595	293.07562	200.22867	194.01321	155.80684	
776	7.750	198.55594	195.00830	293.07318	200.21068	194.00293	155.79262	
777	7.760	198.55931	195.00478	293.07733	200.22867	194.01321	155.80684	
778	7.770	198.56020	195.00101	293.08307	200.22066	194.00864	155.80051	
779	7.780	198.55225	195.00716	293.07593	200.22867	194.01321	155.80684	
780	7.790	198.57120	195.00081	293.07974	200.22867	194.01321	155.80684	
781	7.800	198.54869	195.00835	293.07523	200.22867	194.01321	155.80684	
782	7.810	198.55225	195.00716	293.07593	200.22867	194.01321	155.80684	
783	7.820	198.59618	194.99010	293.08835	200.22867	194.01321	155.80684	
784	7.830	198.58539	195.00208	293.07422	200.22867	194.01321	155.80684	
785	7.840	198.59245	194.99495	293.08255	200.22867	194.01321	155.80684	
786	7.850	198.57390	195.00586	293.07153	200.22867	194.01321	155.80684	
787	7.860	198.54880	195.01074	293.07193	200.22867	194.01321	155.80684	
788	7.870	198.53400	195.00630	293.08319	200.22867	194.01321	155.80684	
789	7.880	198.53911	195.01042	293.07529	200.22867	194.01321	155.80684	
790	7.890	198.55579	195.00598	293.07663	200.22867	194.01321	155.80684	
791	7.900	198.55957	195.00829	293.07217	200.22867	194.01321	155.80684	
792	7.910	198.54994	195.01036	293.07224	200.22867	194.01321	155.80684	
793	7.920	198.55225	195.00716	293.07593	200.22867	194.01321	155.80684	
794	7.930	198.54869	195.00835	293.07523	200.22867	194.01321	155.80684	
795	7.940	198.53810	195.01190	293.07312	200.22867	194.01321	155.80684	
796	7.950	198.52339	195.00978	293.08096	200.22867	194.01321	155.80684	
797	7.960	198.55402	194.99724	293.09070	200.22867	194.01321	155.80684	
798	7.970	198.55931	195.00478	293.07733	200.22867	194.01321	155.80684	
799	7.980	198.53728	195.00160	293.08905	200.22867	194.01321	155.80684	
800	7.990	198.55455	195.00641	293.07651	200.22867	194.01321	155.80684	
801	8.000	198.58818	195.00226	293.07260	200.22867	194.01321	155.80684	
802	8.010	198.60616	195.00450	293.06409	200.22867	194.01321	155.80684	
803	8.020	198.57327	194.99788	293.08405	200.22867	194.01321	155.80684	
804	8.030	198.59167	194.99870	293.07675	200.22867	194.01321	155.80684	
805	8.040	198.60258	195.00453	293.06509	200.22867	194.01321	155.80684	
806	8.050	198.58138	195.01166	293.06088	200.22867	194.01321	155.80684	
807	8.060	198.55931	195.00478	293.07733	200.22867	194.01321	155.80684	
808	8.070	198.55579	195.00598	293.07663	200.22867	194.01321	155.80684	
809	8.080	198.53810	195.01190	293.07312	200.22867	194.01321	155.80684	
810	8.090	198.55579	195.00598	293.07663	200.22867	194.01321	155.80684	
811	8.100	198.56387	195.00093	293.08194	200.22867	194.01321	155.80684	
812	8.110	198.53810	195.01190	293.07312	200.22867	194.01321	155.80684	
813	8.120	198.54703	195.00301	293.08386	200.22867	194.01321	155.80684	
814	8.130	198.55557	195.00369	293.08023	200.22867	194.01321	155.80684	
815	8.140	198.54376	195.00894	293.07642	200.22867	194.01321	155.80684	
816	8.150	198.53810	195.01190	293.07312	200.22867	194.01321	155.80684	
817	8.160	198.54575	195.00110	293.08716	200.22867	194.01321	155.80684	
818	8.170	198.57361	194.99998	293.08014	200.22665	194.01207	155.80525	
819	8.180	198.58826	195.00461	293.06915	200.22867	194.01321	155.80684	
820	8.190	198.56311	195.00710	293.07288	200.22867	194.01321	155.80684	
821	8.200	198.53621	195.00322	293.08719	200.22867	194.01321	155.80684	
822	8.210	198.57019	195.00471	293.07425	200.22867	194.01321	155.80684	
823	8.220	198.54878	195.00952	293.07352	200.22867	194.01321	155.80684	
824	8.230	198.53885	195.00693	293.08047	200.22665	194.01207	155.80525	
825	8.240	198.58461	195.00462	293.07019	200.22867	194.01321	155.80684	
826	8.250	198.58568	195.00191	293.07391	200.22867	194.01321	155.80684	
827	8.260	198.53810	195.01190	293.07312	200.22867	194.01321	155.80684	
828	8.270	198.54684	194.99956	293.08917	200.22867	194.01321	155.80684	
829	8.280	198.56781	195.00554	293.07385	200.22867	194.01321	155.80684	
830	8.290	198.54172	195.01189	293.07211	200.22867	194.01321	155.80684	
831	8.300	198.58101	195.00346	293.07291	200.22867	194.01321	155.80684	
832	8.310	198.54512	195.00958	293.07468	200.22867	194.01321	155.80684	
833	8.320	198.54869	195.00835	293.07523	200.22867	194.01321	155.80684	
834	8.330	198.55800	195.00285	293.08063	200.22867	194.01321	155.80684	
835	8.340	198.55579	195.00598	293.07663	200.22867	194.01321	155.80684	
836	8.350	198.52934	195.00894	293.08035	200.22867	194.01321	155.80684	
837	8.360	198.55174	195.00026	293.08658	200.22867	194.01321	155.80684	
838	8.370	198.52031	194.99915	293.09811	200.22867	194.01321	155.80684	
839	8.380	198.53641	195.00658	293.08176	200.22867	194.01321	155.80684	
840	8.390	198.54172	195.01189	293.07211	200.22867	194.01321	155.80684	
841	8.400	198.57117	195.00323	293.07645	200.22867	194.01321	155.80684	
842	8.410	198.62086	194.99165	293.07184	200.22867	194.01321	155.80684	
843	8.420	198.55621	195.01180	293.06802	200.22867	194.01321	155.80684	
844	8.430	198.55708	195.00916	293.07190	200.22867	194.01321	155.80684	
845	8.440	198.58794	194.99519	293.08301	200.22867	194.01321	155.80684	
846	8.450	198.53864	195.00349	293.08578	200.22867	194.01321	155.80684	
